<svg width="116" height="80" xmlns="http://www.w3.org/2000/svg" xmlns:xlink="http://www.w3.org/1999/xlink"><defs><path d="m57.926 48.213 14.809 29.71c-4.528 1.336-9.235 2.078-14.061 2.078-5.262 0-10.414-.882-15.368-2.454l14.62-29.334Zm51.861-24.246L116 36.43l.002 3.433c-6.104 12.176-16.917 24.677-30.297 32.423l24.083-48.32Zm-104.042 0 23.428 47.007C16.386 63.074 5.96 51.07 0 39.42l.001-3.933 5.743-11.52ZM53.765 0 33.755 40.145 14.502 1.515C18.893.699 23.858.246 29.24.002h24.524Zm34.043 0c4.812.223 9.263.619 13.246 1.307L81.696 40.145 61.688 0Z" id="a"/></defs><use fill="#835B94" xlink:href="#a" fill-rule="evenodd"/></svg>